# xmcd
#
# Track frame offsets: 
#        150
#        19767
#        34275
#        46608
#        62147
#        82120
#        96489
#        111672
#        125647
#        148604
#        182504
#        212550
#
# Disc length: 3245 seconds
#
# Revision: 2
# Processed by: cddbd v1.5.2PL0 Copyright (c) Steve Scherf et al.
# Submitted via: ExactAudioCopy v0.99pb5
#
DISCID=af0cab0c
DTITLE=Anke Angel - Ich Bin Von Kopf Bis Fuﬂ Auf Boogie Eingestellt
DYEAR=2009
DGENRE=Blues and Boogie
TTITLE0=Boogie Woogie Feeling
TTITLE1=Buy My Blues Away
TTITLE2=Ich Bin Von Kopf Bis Fuﬂ Auf Boogie Eingestellt
TTITLE3=Teardrops In My Eyes
TTITLE4=Andrew Sisters Medley 
TTITLE5=Spiel Mir Eine Alte Melodie
TTITLE6=I Love You
TTITLE7=Holzschuhboogie
TTITLE8=Wonderful World
TTITLE9=Boogie Making Mama
TTITLE10=Cow Cow Boogie
TTITLE11=In The Mood
EXTD=
EXTT0=
EXTT1=
EXTT2=
EXTT3=
EXTT4=
EXTT5=
EXTT6=
EXTT7=
EXTT8=
EXTT9=
EXTT10=
EXTT11=
PLAYORDER=
